<svg xmlns="http://www.w3.org/2000/svg" viewBox="0 0 1440 900" preserveAspectRatio="xMidYMid slice">
  <defs>
    <linearGradient id="bg" x1="0" y1="0" x2="0.6" y2="1" gradientUnits="objectBoundingBox">
      <stop offset="0%" stop-color="#0A0806"/>
      <stop offset="45%" stop-color="#181410"/>
      <stop offset="100%" stop-color="#241C14"/>
    </linearGradient>
    <radialGradient id="glow1" cx="25%" cy="65%" r="55%" gradientUnits="userSpaceOnUse">
      <stop offset="0%" stop-color="#A07840" stop-opacity="0.28"/>
      <stop offset="100%" stop-color="#A07840" stop-opacity="0"/>
    </radialGradient>
    <radialGradient id="glow2" cx="75%" cy="35%" r="40%" gradientUnits="userSpaceOnUse">
      <stop offset="0%" stop-color="#C49850" stop-opacity="0.12"/>
      <stop offset="100%" stop-color="#C49850" stop-opacity="0"/>
    </radialGradient>
  </defs>
  <rect width="1440" height="900" fill="url(#bg)"/>
  <rect width="1440" height="900" fill="url(#glow1)"/>
  <rect width="1440" height="900" fill="url(#glow2)"/>
  <!-- Window grid suggestion -->
  <line x1="0" y1="300" x2="1440" y2="300" stroke="#C49850" stroke-opacity="0.04" stroke-width="1"/>
  <line x1="0" y1="500" x2="1440" y2="500" stroke="#C49850" stroke-opacity="0.04" stroke-width="1"/>
  <line x1="0" y1="700" x2="1440" y2="700" stroke="#C49850" stroke-opacity="0.04" stroke-width="1"/>
  <line x1="480" y1="0" x2="480" y2="900" stroke="#C49850" stroke-opacity="0.03" stroke-width="1"/>
  <line x1="960" y1="0" x2="960" y2="900" stroke="#C49850" stroke-opacity="0.03" stroke-width="1"/>
  <!-- Subtle warm windows -->
  <rect x="200" y="380" width="60" height="40" fill="#D4A060" fill-opacity="0.06" rx="2"/>
  <rect x="280" y="380" width="60" height="40" fill="#D4A060" fill-opacity="0.05" rx="2"/>
  <rect x="200" y="440" width="60" height="40" fill="#D4A060" fill-opacity="0.04" rx="2"/>
  <rect x="1100" y="340" width="60" height="40" fill="#C49850" fill-opacity="0.08" rx="2"/>
  <rect x="1180" y="340" width="60" height="40" fill="#C49850" fill-opacity="0.06" rx="2"/>
  <rect x="1100" y="400" width="60" height="40" fill="#C49850" fill-opacity="0.05" rx="2"/>
  <!-- Replace label -->
  <text x="720" y="455" text-anchor="middle" font-family="Georgia,serif" font-size="13" fill="#C49850" fill-opacity="0.18" letter-spacing="8">ART BY LIME TREE · GURGAON</text>
  <text x="720" y="476" text-anchor="middle" font-family="monospace" font-size="10" fill="white" fill-opacity="0.1" letter-spacing="2">Replace with: /images/hero-bg.jpg</text>
</svg>
